<?xml version="1.0" encoding="UTF-8" standalone="no"?>
<svg
   xmlns:dc="http://purl.org/dc/elements/1.1/"
   xmlns:cc="http://creativecommons.org/ns#"
   xmlns:rdf="http://www.w3.org/1999/02/22-rdf-syntax-ns#"
   xmlns:svg="http://www.w3.org/2000/svg"
   xmlns="http://www.w3.org/2000/svg"
   xmlns:sodipodi="http://sodipodi.sourceforge.net/DTD/sodipodi-0.dtd"
   xmlns:inkscape="http://www.inkscape.org/namespaces/inkscape"
   version="1.1"
   id="Layer_1"
   x="0px"
   y="0px"
   width="96.209px"
   height="99.87px"
   viewBox="4.81045 -9.987 96.209 134.8245"
   enable-background="new 0 0 96.209 99.87"
   xml:space="preserve"
   inkscape:version="0.48.4 r9939"
   sodipodi:docname="analytic.svg"><metadata
     id="metadata39"><rdf:RDF><cc:Work
         rdf:about=""><dc:format>image/svg+xml</dc:format><dc:type
           rdf:resource="http://purl.org/dc/dcmitype/StillImage" /></cc:Work></rdf:RDF></metadata><defs
     id="defs37" /><sodipodi:namedview
     pagecolor="#ffffff"
     bordercolor="#666666"
     borderopacity="1"
     objecttolerance="10"
     gridtolerance="10"
     guidetolerance="10"
     inkscape:pageopacity="0"
     inkscape:pageshadow="2"
     inkscape:window-width="753"
     inkscape:window-height="480"
     id="namedview35"
     showgrid="false"
     inkscape:zoom="2.3630719"
     inkscape:cx="48.104499"
     inkscape:cy="49.935"
     inkscape:window-x="65"
     inkscape:window-y="24"
     inkscape:window-maximized="0"
     inkscape:current-layer="Layer_1" /><path
     inkscape:connector-curvature="0"
     id="path5"
     d="m 99.453773,16.935354 h -87.844 c -2.3099997,0 -4.1829997,-1.873 -4.1829997,-4.183 0,-2.31 1.873,-4.1830002 4.1829997,-4.1830002 h 87.844 c 2.310997,0 4.182997,1.8730002 4.182997,4.1830002 -0.001,2.31 -1.873,4.183 -4.182997,4.183 z"
     style="fill:#ffffff" /><path
     inkscape:connector-curvature="0"
     id="path7"
     d="m 18.138774,69.296354 c -1.657,0 -3,-1.343 -3,-3 v -53.544 c 0,-1.657 1.343,-3.0000002 3,-3.0000002 1.657,0 2.999999,1.3430002 2.999999,3.0000002 v 53.543 c 0,1.658 -1.342999,3.001 -2.999999,3.001 z"
     style="fill:#ffffff" /><path
     inkscape:connector-curvature="0"
     id="path9"
     d="M 91.924773,69.641354 H 19.138774 c -1.848001,0 -3.347,-1.498 -3.347,-3.346 0,-1.848 1.499,-3.347 3.347,-3.347 h 72.784999 c 1.849,0 3.346,1.499 3.346,3.347 0,1.848 -1.497,3.346 -3.345,3.346 z"
     style="fill:#ffffff" /><path
     inkscape:connector-curvature="0"
     id="path11"
     d="m 91.924773,69.641354 c -1.847999,0 -3.346999,-1.498 -3.346999,-3.346 v -53.543 c 0,-1.848 1.499,-3.3470002 3.346999,-3.3470002 1.849001,0 3.346001,1.4990002 3.346001,3.3470002 v 53.543 c -0.001,1.848 -1.498001,3.346 -3.346001,3.346 z"
     style="fill:#ffffff" /><path
     inkscape:connector-curvature="0"
     id="path13"
     d="m 55.531773,87.211354 c -1.848,0 -3.347,-1.499 -3.347,-3.347 v -17.568 c 0,-1.848 1.499,-3.347 3.347,-3.347 1.848,0 3.345,1.499 3.345,3.347 v 17.568 c 10e-4,1.848 -1.496,3.347 -3.345,3.347 z"
     style="fill:#ffffff" /><path
     inkscape:connector-curvature="0"
     id="path15"
     d="m 35.243773,107.49835 c -0.856,0 -1.713,-0.326 -2.366,-0.98 -1.306999,-1.307 -1.306999,-3.425 0,-4.731 l 20.288,-20.287996 c 1.307001,-1.307 3.424,-1.307 4.732,0 1.307001,1.308 1.307001,3.425 0,4.731 l -20.287,20.286996 c -0.655,0.655 -1.510999,0.981 -2.367,0.981 z"
     style="fill:#ffffff" /><path
     inkscape:connector-curvature="0"
     id="path17"
     d="m 76.759773,107.96835 c -0.855,0 -1.712,-0.326 -2.365,-0.98 l -21.229,-21.228996 c -1.308,-1.307 -1.308,-3.426 0,-4.732 1.307001,-1.307 3.424,-1.307 4.732,0 l 21.229,21.228996 c 1.307,1.309 1.307,3.426 0,4.732 -0.653999,0.654 -1.51,0.98 -2.367,0.98 z"
     style="fill:#ffffff" /><path
     inkscape:connector-curvature="0"
     id="path19"
     d="m 55.531773,108.43935 c -1.848,0 -3.347,-1.498 -3.347,-3.346 V 83.864354 c 0,-1.849 1.499,-3.347 3.347,-3.347 1.848,0 3.345,1.498 3.345,3.347 v 21.228996 c 10e-4,1.848 -1.496,3.346 -3.345,3.346 z"
     style="fill:#ffffff" /><path
     inkscape:connector-curvature="0"
     id="path21"
     d="m 31.523773,53.317354 c -0.634,0 -1.269999,-0.239 -1.759,-0.719 -0.988,-0.971 -1.003,-2.561 -0.032,-3.549 l 8.714001,-8.875 c 0.972,-0.988 2.56,-1.003 3.549,-0.032 0.988,0.971 1.003,2.56 0.033,3.548 l -8.714,8.875 c -0.492,0.499 -1.141,0.752 -1.791,0.752 z"
     style="fill:#f9a528;fill-opacity:1" /><path
     inkscape:connector-curvature="0"
     id="path23"
     d="m 45.204774,52.539354 c -0.843,0 -1.668,-0.425 -2.14,-1.198 l -4.966001,-8.098 c -0.725999,-1.181 -0.354,-2.727 0.827,-3.452 1.176,-0.723 2.727,-0.354 3.451,0.827 l 4.966,8.098 c 0.725001,1.182 0.354,2.728 -0.828,3.451 -0.408,0.252 -0.862,0.372 -1.31,0.372 z"
     style="fill:#f9a528;fill-opacity:1" /><path
     inkscape:connector-curvature="0"
     id="path25"
     d="m 45.201774,52.539354 c -0.546,0 -1.094001,-0.176 -1.554001,-0.542 -1.089,-0.859 -1.273,-2.438 -0.414,-3.524 l 14.561001,-18.423 c 0.858,-1.087 2.438,-1.272 3.524,-0.413 1.088,0.859 1.272,2.438 0.413,3.525 l -14.559,18.423 c -0.496,0.627 -1.23,0.954 -1.971,0.954 z"
     style="fill:#f9a528;fill-opacity:1" /><path
     inkscape:connector-curvature="0"
     id="path27"
     d="m 66.313774,42.018354 c -0.808,0 -1.604,-0.392 -2.088,-1.116 l -5.667001,-8.476 c -0.768999,-1.152 -0.46,-2.711 0.691001,-3.481 1.148,-0.767 2.711,-0.462 3.482,0.692 l 5.667,8.476 c 0.768999,1.152 0.459999,2.71 -0.692,3.481 -0.426,0.287 -0.912,0.424 -1.393,0.424 z"
     style="fill:#f9a528;fill-opacity:1" /><path
     inkscape:connector-curvature="0"
     id="path29"
     d="m 66.312774,42.018354 c -0.674,0 -1.345,-0.27 -1.84,-0.804 -0.942,-1.015 -0.884,-2.604 0.133,-3.546 l 10.099,-9.37 c 1.019,-0.943 2.603999,-0.883 3.548,0.133 0.943,1.016 0.884,2.604 -0.133,3.547 l -10.1,9.371 c -0.483,0.448 -1.095,0.669 -1.707,0.669 z"
     style="fill:#f9a528;fill-opacity:1" /></svg>