<?xml version="1.0" encoding="UTF-8" standalone="no"?>
<svg
   xmlns:dc="http://purl.org/dc/elements/1.1/"
   xmlns:cc="http://creativecommons.org/ns#"
   xmlns:rdf="http://www.w3.org/1999/02/22-rdf-syntax-ns#"
   xmlns:svg="http://www.w3.org/2000/svg"
   xmlns="http://www.w3.org/2000/svg"
   xmlns:sodipodi="http://sodipodi.sourceforge.net/DTD/sodipodi-0.dtd"
   xmlns:inkscape="http://www.inkscape.org/namespaces/inkscape"
   version="1.1"
   id="Layer_1"
   x="0px"
   y="0px"
   width="100px"
   height="75.784px"
   viewBox="5.0 -7.5784 100.0 102.3084"
   enable-background="new 0 0 100 75.784"
   xml:space="preserve"
   inkscape:version="0.48.4 r9939"
   sodipodi:docname="cloud.svg"><metadata
     id="metadata15"><rdf:RDF><cc:Work
         rdf:about=""><dc:format>image/svg+xml</dc:format><dc:type
           rdf:resource="http://purl.org/dc/dcmitype/StillImage" /></cc:Work></rdf:RDF></metadata><defs
     id="defs13" /><sodipodi:namedview
     pagecolor="#ffffff"
     bordercolor="#666666"
     borderopacity="1"
     objecttolerance="10"
     gridtolerance="10"
     guidetolerance="10"
     inkscape:pageopacity="0"
     inkscape:pageshadow="2"
     inkscape:window-width="753"
     inkscape:window-height="480"
     id="namedview11"
     showgrid="false"
     inkscape:zoom="2.92"
     inkscape:cx="-10.273973"
     inkscape:cy="37.891998"
     inkscape:window-x="65"
     inkscape:window-y="24"
     inkscape:window-maximized="0"
     inkscape:current-layer="Layer_1" /><path
     d="m 78.279945,79.202603 c -1.892,0 -5.283,0 -9.278,0 0.058,-0.498 0.148,-0.981 0.148,-1.492 v -7.601 c 3.82,0 7.11,0 9.13,0 10.042,0 18.18,-8.142 18.18,-18.18 0,-10.042 -8.138,-18.184 -18.18,-18.184 -2.797,0 -5.43,0.657 -7.791,1.792 l -3.681,-3.678 c -4.218,-9.584 -13.746,-16.295 -24.894,-16.295 -15.063,0 -27.272,12.209 -27.272,27.272 0,15.051 12.191,27.25 27.237,27.273 v 7.601 c 0,0.513 0.095,0.997 0.15,1.492 -0.037,0 -0.08,0 -0.117,0 -20.084,0 -36.3639995,-16.28 -36.3639995,-36.365 0,-20.083 16.2799995,-36.365 36.3639995,-36.365 13.648,0 25.524,7.528 31.744,18.648 1.51,-0.26 3.039,-0.466 4.619,-0.466 15.064,0 27.273005,12.212 27.273005,27.276 0.004,15.059 -12.205005,27.272 -27.268005,27.272 z"
     id="path3"
     inkscape:connector-curvature="0"
     style="fill:#ffffff;fill-opacity:1" /><path
     d="m 39.445946,52.685302 c -1.774,-1.771 -1.774,-4.652 0,-6.424 l 12.857,-12.859 c 1.772,-1.776 4.654,-1.776 6.427,0 l 12.855,12.859 c 1.775,1.771 1.775,4.652 0,6.424 -1.774,1.775 -4.653,1.775 -6.427,0 l -5.099,-5.097 v 26.886 c 0,2.509 -2.036,4.546 -4.543,4.546 -2.512,0 -4.546,-2.037 -4.546,-4.546 v -26.885 l -5.097,5.097 c -1.773,1.775 -4.651,1.775 -6.427,-10e-4 z"
     id="path5"
     inkscape:connector-curvature="0"
     style="fill:#f9a528;fill-opacity:1" /></svg>