<?xml version="1.0" encoding="UTF-8" standalone="no"?>
<svg
   xmlns:dc="http://purl.org/dc/elements/1.1/"
   xmlns:cc="http://creativecommons.org/ns#"
   xmlns:rdf="http://www.w3.org/1999/02/22-rdf-syntax-ns#"
   xmlns:svg="http://www.w3.org/2000/svg"
   xmlns="http://www.w3.org/2000/svg"
   xmlns:sodipodi="http://sodipodi.sourceforge.net/DTD/sodipodi-0.dtd"
   xmlns:inkscape="http://www.inkscape.org/namespaces/inkscape"
   version="1.1"
   id="Your_Icon"
   x="0px"
   y="0px"
   width="100px"
   height="100px"
   viewBox="5.0 -10.0 100.0 135.0"
   enable-background="new 0 0 100 100"
   xml:space="preserve"
   inkscape:version="0.48.4 r9939"
   sodipodi:docname="noun_99340_cc.svg"><metadata
     id="metadata13"><rdf:RDF><cc:Work
         rdf:about=""><dc:format>image/svg+xml</dc:format><dc:type
           rdf:resource="http://purl.org/dc/dcmitype/StillImage" /></cc:Work></rdf:RDF></metadata><defs
     id="defs11" /><sodipodi:namedview
     pagecolor="#ffffff"
     bordercolor="#666666"
     borderopacity="1"
     objecttolerance="10"
     gridtolerance="10"
     guidetolerance="10"
     inkscape:pageopacity="0"
     inkscape:pageshadow="2"
     inkscape:window-width="640"
     inkscape:window-height="480"
     id="namedview9"
     showgrid="false"
     inkscape:zoom="2.36"
     inkscape:cx="50"
     inkscape:cy="50"
     inkscape:window-x="65"
     inkscape:window-y="24"
     inkscape:window-maximized="0"
     inkscape:current-layer="Your_Icon" /><path
     d="m 98.080508,12.140407 c -34.514,-3.7290002 -60.236,31.209999 -63.139,53.810999 10.355,-14.745 27.659,-32.951 47.02,-44.326 -17.232,12.31 -35.024,31.462 -47.735,51.212 -5.764,8.955 -12.684,18.829 -15.146,29.027004 1.584,-2.854004 3.963,-5.116004 6.272,-5.376004 3.149,-8.108 7.435,-16.218 12.05,-23.612 12.919,0.063 22.961,-3.089 30.896,-8.345 -5.084,-2.55 -13.062,-5.444 -18.754,-6.593 6.853,0.207 12.997,0.223 22.853,3.551 10.494,-8.709 16.807,-21.437 21.326,-34.712 -4.072,-0.678 -8.363,-1.134 -11.771,-1.15 4.111,-0.679 7.954,-1.377 12.65,-1.513 1.283,-3.99 2.423,-8.017 3.478,-11.973999 l 0,0 z"
     id="path3"
     inkscape:connector-curvature="0" /></svg>